<svg width="180" height="36" viewBox="0 0 180 36" fill="none" xmlns="http://www.w3.org/2000/svg">
<line x1="-3.93403e-08" y1="1.3498" x2="73.8" y2="1.3498" stroke="#233B6E" stroke-width="0.9"/>
<line x1="115.2" y1="1.3498" x2="180" y2="1.3498" stroke="#233B6E" stroke-width="0.9"/>
<line x1="-3.93403e-08" y1="33.7502" x2="73.8" y2="33.7502" stroke="#233B6E" stroke-width="0.9"/>
<line x1="115.2" y1="33.7502" x2="180" y2="33.7502" stroke="#233B6E" stroke-width="0.9"/>
<path fill-rule="evenodd" clip-rule="evenodd" d="M91.2354 0.436271C92.2736 0.239705 93.2132 0.936906 93.3339 1.99351L94.4025 11.3453C94.5233 12.4019 93.7795 13.4178 92.7412 13.6143C91.703 13.8109 90.7634 13.1137 90.6427 12.0571L89.5741 2.70534C89.4533 1.64873 90.1971 0.632837 91.2354 0.436271Z" fill="#233B6E"/>
<path fill-rule="evenodd" clip-rule="evenodd" d="M95.8352 23.527C96.8197 23.0981 97.9024 23.5492 98.2533 24.5346L101.359 33.2563C101.71 34.2417 101.197 35.3883 100.212 35.8173C99.2275 36.2462 98.1449 35.7951 97.7939 34.8097L94.6879 26.088C94.3369 25.1025 94.8506 23.956 95.8352 23.527Z" fill="#FF5F94"/>
<path fill-rule="evenodd" clip-rule="evenodd" d="M76.3793 14.1081C76.6882 13.0621 77.7482 12.4144 78.7467 12.6614L87.5846 14.8475C88.5831 15.0945 89.1421 16.1426 88.8332 17.1886C88.5243 18.2346 87.4643 18.8823 86.4658 18.6353L77.6279 16.4492C76.6294 16.2022 76.0703 15.154 76.3793 14.1081Z" fill="#233B6E"/>
<path fill-rule="evenodd" clip-rule="evenodd" d="M81.7311 31.2535C81.0509 30.4871 81.1428 29.255 81.9364 28.5016L93.5851 17.4434C94.3787 16.69 95.5735 16.7006 96.2538 17.4671C96.934 18.2336 96.8421 19.4657 96.0485 20.219L84.3997 31.2772C83.6061 32.0306 82.4113 32.02 81.7311 31.2535Z" fill="#233B6E"/>
<path fill-rule="evenodd" clip-rule="evenodd" d="M93.1556 18.3502C93.4738 17.3065 94.5388 16.6686 95.5345 16.9253L109.429 20.5076C110.424 20.7643 110.974 21.8185 110.655 22.8621C110.337 23.9057 109.272 24.5437 108.276 24.287L94.3821 20.7046C93.3865 20.4479 92.8373 19.3938 93.1556 18.3502Z" fill="#233B6E"/>
<path fill-rule="evenodd" clip-rule="evenodd" d="M108.086 5.535C108.736 6.3287 108.6 7.55956 107.782 8.28419L100.541 14.6978C99.723 15.4224 98.5324 15.3664 97.8819 14.5727C97.2313 13.779 97.3672 12.5482 98.1853 11.8235L105.426 5.40996C106.244 4.68532 107.435 4.74131 108.086 5.535Z" fill="#FEDB77"/>
<path d="M170.804 20.5326L164.391 9.7914C164.296 9.64065 164.288 9.51251 164.367 9.40698C164.461 9.28638 164.619 9.22607 164.839 9.22607H166.489C166.866 9.22607 167.134 9.35421 167.291 9.6105L172.172 18.0226L177.029 9.6105C177.186 9.35421 177.454 9.22607 177.831 9.22607H179.481C179.701 9.22607 179.851 9.28638 179.929 9.40698C180.024 9.51251 180.024 9.64065 179.929 9.7914L173.516 20.5326V26.1633C173.516 26.5703 173.311 26.7738 172.903 26.7738H171.417C171.009 26.7738 170.804 26.5703 170.804 26.1633V20.5326Z" fill="black"/>
<path d="M151.832 20.9623V26.1633C151.832 26.5703 151.627 26.7738 151.219 26.7738H149.733C149.324 26.7738 149.12 26.5703 149.12 26.1633V10.2889C149.12 9.58035 149.482 9.22607 150.205 9.22607H157.09C158.961 9.22607 160.415 9.71602 161.452 10.6959C162.505 11.6607 163.032 13.1231 163.032 15.0829C163.032 16.3793 162.796 17.4572 162.325 18.3165C161.869 19.1758 161.208 19.8316 160.344 20.2839L163.362 26.2085C163.441 26.3743 163.441 26.51 163.362 26.6155C163.283 26.7211 163.134 26.7738 162.914 26.7738H161.334C160.941 26.7738 160.666 26.6306 160.509 26.3442L157.797 20.9396C157.687 20.9547 157.569 20.9623 157.444 20.9623C157.334 20.9623 157.216 20.9623 157.09 20.9623H151.832ZM151.832 11.7135V18.4748H156.948C159.196 18.4748 160.32 17.3517 160.32 15.1055C160.32 12.8442 159.196 11.7135 156.948 11.7135H151.832Z" fill="black"/>
<path d="M142.356 20.4648L139.314 11.8944L136.272 20.4648H142.356ZM143.252 22.9522H135.376L134.221 26.2311C134.158 26.3969 134.079 26.5251 133.985 26.6155C133.891 26.7211 133.749 26.7738 133.561 26.7738H131.839C131.651 26.7738 131.509 26.7211 131.415 26.6155C131.321 26.5251 131.305 26.3969 131.368 26.2311L137.286 9.85924C137.443 9.43713 137.75 9.22607 138.206 9.22607H140.422C140.878 9.22607 141.185 9.43713 141.342 9.85924L147.26 26.2311C147.323 26.3969 147.307 26.5251 147.213 26.6155C147.119 26.7211 146.977 26.7738 146.789 26.7738H145.067C144.879 26.7738 144.737 26.7211 144.643 26.6155C144.549 26.5251 144.47 26.3969 144.407 26.2311L143.252 22.9522Z" fill="black"/>
<path d="M118.467 20.9627V26.1637C118.467 26.5708 118.263 26.7743 117.854 26.7743H116.369C115.96 26.7743 115.756 26.5708 115.756 26.1637V10.2894C115.756 9.58083 116.117 9.22656 116.841 9.22656H123.726C125.596 9.22656 127.05 9.71651 128.088 10.6964C129.141 11.6612 129.668 13.1235 129.668 15.0833C129.668 16.3798 129.432 17.4577 128.96 18.317C128.504 19.1763 127.844 19.8321 126.98 20.2844L129.998 26.209C130.076 26.3748 130.076 26.5105 129.998 26.616C129.919 26.7215 129.77 26.7743 129.55 26.7743H127.97C127.577 26.7743 127.302 26.6311 127.145 26.3447L124.433 20.9401C124.323 20.9552 124.205 20.9627 124.079 20.9627C123.969 20.9627 123.851 20.9627 123.726 20.9627H118.467ZM118.467 11.714V18.4753H123.584C125.832 18.4753 126.956 17.3522 126.956 15.106C126.956 12.8447 125.832 11.714 123.584 11.714H118.467Z" fill="black"/>
<path d="M72.0902 9.22656C72.4832 9.22656 72.6797 9.415 72.6797 9.79189V11.1487C72.6797 11.5256 72.4832 11.714 72.0902 11.714H69.2607V24.2869H72.4439C72.8369 24.2869 73.0334 24.4753 73.0334 24.8522V26.209C73.0334 26.5859 72.8369 26.7743 72.4439 26.7743H63.3658C62.9729 26.7743 62.7764 26.5859 62.7764 26.209V24.8522C62.7764 24.4753 62.9729 24.2869 63.3658 24.2869H66.5491V11.714H63.7195C63.3266 11.714 63.1301 11.5256 63.1301 11.1487V9.79189C63.1301 9.415 63.3266 9.22656 63.7195 9.22656H72.0902Z" fill="black"/>
<path d="M59.5948 9.22607C59.9878 9.22607 60.1843 9.41452 60.1843 9.7914V11.1482C60.1843 11.5251 59.9878 11.7135 59.5948 11.7135H54.596V26.1633C54.596 26.5703 54.3916 26.7738 53.9829 26.7738H52.4974C52.0887 26.7738 51.8843 26.5703 51.8843 26.1633V11.7135H46.8619C46.469 11.7135 46.2725 11.5251 46.2725 11.1482V9.7914C46.2725 9.41452 46.469 9.22607 46.8619 9.22607H59.5948Z" fill="black"/>
<path d="M37.0497 27C34.7232 27 32.9547 26.5704 31.7443 25.7111C30.5339 24.8518 29.9287 23.6005 29.9287 21.9573C29.9287 21.5503 30.1331 21.3467 30.5418 21.3467H32.0273C32.436 21.3467 32.6403 21.5503 32.6403 21.9573C32.6403 23.6608 34.1415 24.5126 37.144 24.5126C40.0049 24.5126 41.4354 23.8116 41.4354 22.4095C41.4354 22.093 41.3568 21.8065 41.1996 21.5503C41.0581 21.294 40.7988 21.0452 40.4215 20.804C40.06 20.5477 39.5648 20.2839 38.936 20.0126C38.3072 19.7412 37.5212 19.4397 36.5781 19.108C35.352 18.6709 34.3302 18.2638 33.5128 17.8869C32.6954 17.495 32.0351 17.0955 31.5321 16.6884C31.0448 16.2663 30.699 15.8216 30.4946 15.3543C30.2903 14.8719 30.1881 14.3291 30.1881 13.7261C30.1881 12.1583 30.7383 10.9824 31.8386 10.1985C32.9547 9.3995 34.6131 9 36.8139 9C39.0146 9 40.6652 9.42211 41.7655 10.2663C42.8816 11.1106 43.4397 12.3618 43.4397 14.0201C43.4397 14.4271 43.2353 14.6307 42.8266 14.6307H41.3411C40.9324 14.6307 40.728 14.4271 40.728 14.0201C40.728 12.3317 39.3919 11.4874 36.7196 11.4874C35.4777 11.4874 34.5267 11.6533 33.8665 11.9849C33.222 12.3015 32.8997 12.7764 32.8997 13.4095C32.8997 13.696 32.9704 13.9673 33.1119 14.2236C33.2534 14.4799 33.497 14.7362 33.8429 14.9925C34.2044 15.2487 34.6839 15.5126 35.2812 15.7839C35.8786 16.0553 36.641 16.3492 37.5684 16.6658C38.7788 17.0729 39.8006 17.4724 40.6337 17.8643C41.4826 18.2563 42.1664 18.6709 42.6851 19.108C43.2039 19.5452 43.5733 20.0201 43.7933 20.5327C44.0291 21.0302 44.147 21.6106 44.147 22.2739C44.147 23.8719 43.5654 25.0553 42.4022 25.8241C41.2389 26.608 39.4548 27 37.0497 27Z" fill="black"/>
<path d="M26.7591 9.22656C27.1521 9.22656 27.3486 9.415 27.3486 9.79189V11.1487C27.3486 11.5256 27.1521 11.714 26.7591 11.714H17.5632V16.4854H26.2875C26.6805 16.4854 26.877 16.6738 26.877 17.0507V18.4075C26.877 18.7844 26.6805 18.9728 26.2875 18.9728H17.5632V24.2869H27.2307C27.6237 24.2869 27.8202 24.4753 27.8202 24.8522V26.209C27.8202 26.5859 27.6237 26.7743 27.2307 26.7743H15.9362C15.2131 26.7743 14.8516 26.42 14.8516 25.7115V10.2894C14.8516 9.58083 15.2131 9.22656 15.9362 9.22656H26.7591Z" fill="black"/>
<path d="M2.71162 26.1633C2.71162 26.5703 2.50727 26.7738 2.09856 26.7738H0.613062C0.204354 26.7738 0 26.5703 0 26.1633V10.2889C0 9.58035 0.361549 9.22607 1.08465 9.22607H11.9075C12.3005 9.22607 12.497 9.41452 12.497 9.7914V11.1482C12.497 11.5251 12.3005 11.7135 11.9075 11.7135H2.71162V17.3894H11.436C11.829 17.3894 12.0254 17.5778 12.0254 17.9547V19.3115C12.0254 19.6884 11.829 19.8768 11.436 19.8768H2.71162V26.1633Z" fill="black"/>
</svg>
