<svg width="50" height="50" viewBox="0 0 50 50" fill="none" xmlns="http://www.w3.org/2000/svg">
<path fill-rule="evenodd" clip-rule="evenodd" d="M21.804 0.605932C23.246 0.332924 24.5509 1.30126 24.7186 2.76877L26.2028 15.7573C26.3705 17.2248 25.3374 18.6358 23.8954 18.9088C22.4534 19.1818 21.1485 18.2135 20.9808 16.7459L19.4966 3.75742C19.3289 2.28991 20.3619 0.87894 21.804 0.605932Z" fill="#233B6E"/>
<path fill-rule="evenodd" clip-rule="evenodd" d="M28.1957 32.6757C29.5631 32.08 31.0668 32.7065 31.5542 34.0752L35.8682 46.1886C36.3556 47.5573 35.6422 49.1497 34.2747 49.7455C32.9072 50.3413 31.4036 49.7147 30.9161 48.3461L26.6022 36.2326C26.1148 34.864 26.8282 33.2715 28.1957 32.6757Z" fill="#FF5F94"/>
<path fill-rule="evenodd" clip-rule="evenodd" d="M1.17217 19.5952C1.60126 18.1424 3.07339 17.2428 4.46026 17.5859L16.7351 20.6221C18.1219 20.9652 18.8984 22.4209 18.4693 23.8737C18.0402 25.3264 16.5681 26.226 15.1812 25.8829L2.90638 22.8467C1.51951 22.5037 0.743081 21.0479 1.17217 19.5952Z" fill="#233B6E"/>
<path fill-rule="evenodd" clip-rule="evenodd" d="M8.60722 43.4076C7.66245 42.3431 7.7901 40.6319 8.89234 39.5855L25.0711 24.2269C26.1734 23.1805 27.8328 23.1953 28.7776 24.2598C29.7224 25.3243 29.5947 27.0356 28.4925 28.0819L12.3137 43.4405C11.2114 44.4869 9.55199 44.4722 8.60722 43.4076Z" fill="#233B6E"/>
<path fill-rule="evenodd" clip-rule="evenodd" d="M24.4727 25.485C24.9146 24.0356 26.3939 23.1495 27.7767 23.5061L47.0744 28.4815C48.4572 28.8381 49.2199 30.3021 48.778 31.7516C48.336 33.2011 46.8567 34.0871 45.4739 33.7306L26.1763 28.7551C24.7934 28.3986 24.0307 26.9345 24.4727 25.485Z" fill="#233B6E"/>
<path fill-rule="evenodd" clip-rule="evenodd" d="M45.2092 7.68783C46.1127 8.79019 45.924 10.4997 44.7877 11.5062L34.7307 20.4139C33.5944 21.4203 31.9408 21.3426 31.0373 20.2402C30.1338 19.1378 30.3225 17.4283 31.4588 16.4219L41.5158 7.51415C42.652 6.50771 44.3057 6.58547 45.2092 7.68783Z" fill="#FEDB77"/>
</svg>
