<svg width="24" height="24" viewBox="0 0 24 24" fill="none" xmlns="http://www.w3.org/2000/svg">
<path d="M12 10C14.2091 10 16 8.20914 16 6C16 3.79086 14.2091 2 12 2C9.79086 2 8 3.79086 8 6C8 8.20914 9.79086 10 12 10Z" stroke="black" stroke-linecap="round" stroke-linejoin="round"/>
<path d="M4 22H12H20V21.1335C19.9858 19.9152 19.6285 18.7199 18.9613 17.6595C18.2941 16.599 17.3388 15.7079 16.1848 15.0693C15.0307 14.4308 13.7154 14.0657 12.3618 14.008C12.2411 14.0029 12.1205 14.0002 12 14C11.8795 14.0002 11.7589 14.0029 11.6382 14.008C10.2846 14.0657 8.96933 14.4308 7.81524 15.0693C6.66116 15.7079 5.7059 16.599 5.0387 17.6595C4.37151 18.7199 4.01415 19.9152 4 21.1335V22Z" stroke="black" stroke-linecap="round" stroke-linejoin="round"/>
</svg>
