<svg width="16" height="30" viewBox="0 0 16 30" fill="none" xmlns="http://www.w3.org/2000/svg">
<path d="M6.11304 19.4517C5.45122 19.8792 4.66258 20.0656 3.87971 19.9794C3.09685 19.8932 2.36751 19.5396 1.81434 18.9781L1.33073 18.5045C1.11871 18.2873 1 17.9956 1 17.6919C1 17.3882 1.11871 17.0964 1.33073 16.8793L3.38336 14.845C3.59841 14.6333 3.88785 14.5147 4.18937 14.5147C4.49088 14.5147 4.78033 14.6333 4.99537 14.845C5.21223 15.0573 5.50348 15.1762 5.80676 15.1762C6.11004 15.1762 6.40127 15.0573 6.61813 14.845L9.84216 11.616C9.94971 11.5099 10.0351 11.3833 10.0934 11.2438C10.1517 11.1043 10.1817 10.9546 10.1817 10.8034C10.1817 10.6521 10.1517 10.5024 10.0934 10.3629C10.0351 10.2234 9.94971 10.0969 9.84216 9.99075C9.63083 9.77538 9.51241 9.48548 9.51241 9.18351C9.51241 8.88153 9.63083 8.59164 9.84216 8.37626L11.884 6.33124C12.1009 6.11889 12.3921 6 12.6954 6C12.9988 6 13.29 6.11889 13.5068 6.33124L13.9797 6.81559C14.5403 7.36961 14.8933 8.10008 14.9794 8.88414C15.0656 9.66821 14.8795 10.4581 14.4525 11.1209C12.2279 14.4045 9.39732 17.2321 6.11304 19.4517Z" fill="black" stroke="black" stroke-linecap="round" stroke-linejoin="round"/>
</svg>
