<svg width="24" height="24" viewBox="0 0 24 24" fill="none" xmlns="http://www.w3.org/2000/svg">
<path d="M5.143 9.92773H18.8573C19.5279 9.92773 20.0716 10.4714 20.0716 11.142V21.4277C20.0716 22.0984 19.5279 22.642 18.8573 22.642H5.143C4.47237 22.642 3.92871 22.0984 3.92871 21.4277V11.142C3.92871 10.4714 4.47237 9.92773 5.143 9.92773Z" fill="#233B6E" stroke="black" stroke-linecap="round" stroke-linejoin="round"/>
<mask id="path-2-inside-1_2065_2181" fill="white">
<path d="M18 9.42787V6.85644C18 5.26514 17.3679 3.73902 16.2426 2.61381C15.1174 1.48859 13.5913 0.856445 12 0.856445C10.4087 0.856445 8.88257 1.48859 7.75737 2.61381C6.63214 3.73902 6 5.26514 6 6.85644V9.42787"/>
</mask>
<path d="M17 9.42787C17 9.98016 17.4477 10.4279 18 10.4279C18.5523 10.4279 19 9.98016 19 9.42787H17ZM16.2426 2.61381L15.5355 3.32091L15.5356 3.32095L16.2426 2.61381ZM7.75737 2.61381L8.46447 3.32092L8.46448 3.32091L7.75737 2.61381ZM5 9.42787C5 9.98016 5.44772 10.4279 6 10.4279C6.55228 10.4279 7 9.98016 7 9.42787H5ZM19 9.42787V6.85644H17V9.42787H19ZM19 6.85644C19 4.99996 18.2626 3.21945 16.9497 1.90667L15.5356 3.32095C16.4733 4.25858 17 5.53033 17 6.85644H19ZM16.9497 1.90671C15.637 0.593943 13.8565 -0.143555 12 -0.143555V1.85645C13.3261 1.85645 14.5979 2.38323 15.5355 3.32091L16.9497 1.90671ZM12 -0.143555C10.1435 -0.143555 8.363 0.593943 7.05025 1.90671L8.46448 3.32091C9.40214 2.38323 10.6739 1.85645 12 1.85645V-0.143555ZM7.05026 1.9067C5.7375 3.21944 5 4.99993 5 6.85644H7C7 5.53036 7.52679 4.25859 8.46447 3.32092L7.05026 1.9067ZM5 6.85644V9.42787H7V6.85644H5Z" fill="black" mask="url(#path-2-inside-1_2065_2181)"/>
<path d="M12.0007 17.142C12.4741 17.142 12.8578 16.7583 12.8578 16.2849C12.8578 15.8115 12.4741 15.4277 12.0007 15.4277C11.5273 15.4277 11.1436 15.8115 11.1436 16.2849C11.1436 16.7583 11.5273 17.142 12.0007 17.142Z" fill="black"/>
</svg>
