<svg width="20" height="20" viewBox="0 0 20 20" fill="none" xmlns="http://www.w3.org/2000/svg">
<path d="M10.0033 0C5.82836 0 4.60736 0.00430806 4.37002 0.024002C3.51325 0.0952388 2.98012 0.230173 2.39931 0.519429C1.9517 0.741755 1.59869 0.999469 1.25029 1.36073C0.615799 2.01956 0.231256 2.83009 0.0920511 3.79355C0.0243715 4.26128 0.00468288 4.35668 0.000683632 6.7458C-0.00085454 7.54218 0.000683632 8.59027 0.000683632 9.99608C0.000683632 14.1687 0.00529815 15.3888 0.0252944 15.6258C0.0945121 16.4597 0.225257 16.9844 0.502128 17.5583C1.03126 18.6568 2.04184 19.4815 3.23238 19.7892C3.64461 19.8954 4.09991 19.9538 4.68442 19.9815C4.93206 19.9923 7.4562 20 9.98188 20C12.5076 20 15.0332 19.9969 15.2747 19.9846C15.9515 19.9528 16.3445 19.9 16.7791 19.7877C17.3694 19.6362 17.9195 19.3577 18.3911 18.9716C18.8627 18.5855 19.2443 18.101 19.5093 17.5521C19.7808 16.9921 19.9185 16.4474 19.9808 15.657C19.9943 15.4847 20 12.7372 20 9.99346C20 7.24923 19.9938 4.50684 19.9803 4.33452C19.9172 3.53138 19.7796 2.99133 19.4993 2.42051C19.2694 1.95324 19.014 1.60429 18.6433 1.24749C17.9819 0.615437 17.1728 0.230789 16.2086 0.0917001C15.7414 0.0241559 15.6484 0.0041542 13.258 0H10.0033Z" fill="url(#paint0_radial_1719_2462)"/>
<path d="M10.0033 0C5.82836 0 4.60736 0.00430806 4.37002 0.024002C3.51325 0.0952388 2.98012 0.230173 2.39931 0.519429C1.9517 0.741755 1.59869 0.999469 1.25029 1.36073C0.615799 2.01956 0.231256 2.83009 0.0920511 3.79355C0.0243715 4.26128 0.00468288 4.35668 0.000683632 6.7458C-0.00085454 7.54218 0.000683632 8.59027 0.000683632 9.99608C0.000683632 14.1687 0.00529815 15.3888 0.0252944 15.6258C0.0945121 16.4597 0.225257 16.9844 0.502128 17.5583C1.03126 18.6568 2.04184 19.4815 3.23238 19.7892C3.64461 19.8954 4.09991 19.9538 4.68442 19.9815C4.93206 19.9923 7.4562 20 9.98188 20C12.5076 20 15.0332 19.9969 15.2747 19.9846C15.9515 19.9528 16.3445 19.9 16.7791 19.7877C17.3694 19.6362 17.9195 19.3577 18.3911 18.9716C18.8627 18.5855 19.2443 18.101 19.5093 17.5521C19.7808 16.9921 19.9185 16.4474 19.9808 15.657C19.9943 15.4847 20 12.7372 20 9.99346C20 7.24923 19.9938 4.50684 19.9803 4.33452C19.9172 3.53138 19.7796 2.99133 19.4993 2.42051C19.2694 1.95324 19.014 1.60429 18.6433 1.24749C17.9819 0.615437 17.1728 0.230789 16.2086 0.0917001C15.7414 0.0241559 15.6484 0.0041542 13.258 0H10.0033Z" fill="url(#paint1_radial_1719_2462)"/>
<path d="M9.99892 2.61621C7.99376 2.61621 7.74212 2.62498 6.95457 2.66083C6.16857 2.69683 5.63205 2.82131 5.1626 3.00394C4.677 3.19257 4.26508 3.4449 3.85469 3.85555C3.444 4.26604 3.19174 4.67808 3.00255 5.16366C2.8195 5.63339 2.69491 6.1702 2.65953 6.95612C2.62446 7.74388 2.61523 7.99574 2.61523 10.0015C2.61523 12.0072 2.62416 12.2581 2.65984 13.0459C2.69599 13.8321 2.82043 14.3687 3.00285 14.8383C3.19159 15.3241 3.44385 15.7361 3.85439 16.1466C4.26462 16.5574 4.67654 16.8103 5.16183 16.999C5.63159 17.1816 6.16826 17.3061 6.95411 17.3421C7.74165 17.3779 7.99315 17.3867 9.99815 17.3867C12.0035 17.3867 12.2543 17.3779 13.0419 17.3421C13.8279 17.3061 14.365 17.1816 14.8348 16.999C15.3202 16.8103 15.7315 16.5574 16.1418 16.1466C16.5525 15.7361 16.8047 15.3241 16.9939 14.8385C17.1754 14.3687 17.3 13.8319 17.3369 13.046C17.3723 12.2583 17.3815 12.0072 17.3815 10.0015C17.3815 7.99574 17.3723 7.74403 17.3369 6.95627C17.3 6.17005 17.1754 5.63339 16.9939 5.16381C16.8047 4.67808 16.5525 4.26604 16.1418 3.85555C15.7311 3.44474 15.3204 3.19241 14.8343 3.00394C14.3636 2.82131 13.8268 2.69683 13.0408 2.66083C12.2533 2.62498 12.0025 2.61621 9.99677 2.61621H9.99892ZM9.33659 3.94709C9.53316 3.94678 9.75251 3.94709 9.99892 3.94709C11.9702 3.94709 12.2039 3.95417 12.9824 3.98956C13.7022 4.02248 14.0929 4.1428 14.3532 4.24389C14.6977 4.37774 14.9434 4.53776 15.2016 4.79624C15.46 5.05472 15.62 5.3009 15.7541 5.64554C15.8552 5.90557 15.9756 6.29637 16.0084 7.01643C16.0438 7.79496 16.0515 8.02882 16.0515 9.99976C16.0515 11.9707 16.0438 12.2046 16.0084 12.9831C15.9755 13.7031 15.8552 14.094 15.7541 14.354C15.6203 14.6986 15.46 14.944 15.2016 15.2024C14.9432 15.4608 14.6979 15.6208 14.3532 15.7547C14.0932 15.8563 13.7022 15.9763 12.9824 16.0092C12.204 16.0446 11.9702 16.0523 9.99892 16.0523C8.02745 16.0523 7.7938 16.0446 7.01548 16.0092C6.29562 15.976 5.90492 15.8556 5.64451 15.7546C5.29996 15.6207 5.05385 15.4607 4.79544 15.2022C4.53703 14.9437 4.37706 14.6982 4.24293 14.3534C4.14187 14.0933 4.02143 13.7025 3.98867 12.9825C3.95329 12.2039 3.94621 11.9701 3.94621 9.99791C3.94621 8.02574 3.95329 7.79311 3.98867 7.01458C4.02159 6.29452 4.14187 5.90372 4.24293 5.64339C4.37675 5.29875 4.53703 5.05257 4.79544 4.79409C5.05385 4.5356 5.29996 4.37559 5.64451 4.24143C5.90477 4.13988 6.29562 4.01987 7.01548 3.98679C7.69659 3.95602 7.96054 3.94678 9.33659 3.94525V3.94709ZM13.94 5.17335C13.7648 5.17335 13.5935 5.22533 13.4478 5.32273C13.3021 5.42012 13.1885 5.55855 13.1215 5.7205C13.0544 5.88246 13.0369 6.06067 13.0711 6.23259C13.1053 6.40451 13.1897 6.56242 13.3136 6.68635C13.4376 6.81028 13.5955 6.89466 13.7674 6.92882C13.9393 6.96298 14.1174 6.94538 14.2793 6.87826C14.4412 6.81114 14.5795 6.6975 14.6768 6.55172C14.7742 6.40594 14.8261 6.23456 14.826 6.05927C14.826 5.57 14.4292 5.17304 13.94 5.17304V5.17335ZM9.99892 6.20882C7.90501 6.20882 6.20733 7.90697 6.20733 10.0015C6.20733 12.0959 7.90501 13.7933 9.99892 13.7933C12.0928 13.7933 13.7901 12.0959 13.7901 10.0015C13.7901 7.90697 12.0927 6.20882 9.99877 6.20882H9.99892ZM9.99892 7.5397C11.3581 7.5397 12.46 8.6418 12.46 10.0015C12.46 11.361 11.3581 12.4632 9.99892 12.4632C8.63964 12.4632 7.53785 11.361 7.53785 10.0015C7.53785 8.6418 8.63964 7.5397 9.99892 7.5397Z" fill="white"/>
<defs>
<radialGradient id="paint0_radial_1719_2462" cx="0" cy="0" r="1" gradientUnits="userSpaceOnUse" gradientTransform="translate(5.31253 21.5404) rotate(-90) scale(19.8215 18.4355)">
<stop stop-color="#FFDD55"/>
<stop offset="0.1" stop-color="#FFDD55"/>
<stop offset="0.5" stop-color="#FF543E"/>
<stop offset="1" stop-color="#C837AB"/>
</radialGradient>
<radialGradient id="paint1_radial_1719_2462" cx="0" cy="0" r="1" gradientUnits="userSpaceOnUse" gradientTransform="translate(-3.35011 1.44077) rotate(78.6806) scale(8.86028 36.5225)">
<stop stop-color="#3771C8"/>
<stop offset="0.128" stop-color="#3771C8"/>
<stop offset="1" stop-color="#6600FF" stop-opacity="0"/>
</radialGradient>
</defs>
</svg>
