<svg width="25" height="24" viewBox="0 0 25 24" fill="none" xmlns="http://www.w3.org/2000/svg">
<mask id="path-2-inside-1_1993_2301" fill="white">
<path d="M4.78711 10.2852V21.428H20.2157V10.2852"/>
</mask>
<path d="M5.78711 10.2852C5.78711 9.73287 5.33939 9.28516 4.78711 9.28516C4.23482 9.28516 3.78711 9.73287 3.78711 10.2852H5.78711ZM4.78711 21.428H3.78711C3.78711 21.9803 4.23482 22.428 4.78711 22.428V21.428ZM20.2157 21.428V22.428C20.768 22.428 21.2157 21.9803 21.2157 21.428H20.2157ZM21.2157 10.2852C21.2157 9.73287 20.768 9.28516 20.2157 9.28516C19.6634 9.28516 19.2157 9.73287 19.2157 10.2852H21.2157ZM3.78711 10.2852V21.428H5.78711V10.2852H3.78711ZM4.78711 22.428H20.2157V20.428H4.78711V22.428ZM21.2157 21.428V10.2852H19.2157V21.428H21.2157Z" fill="black" mask="url(#path-2-inside-1_1993_2301)"/>
<mask id="path-4-inside-2_1993_2301" fill="white">
<path d="M1.35742 13.7132L12.5003 2.57031L23.6431 13.7132"/>
</mask>
<path d="M0.650315 13.0061C0.259791 13.3966 0.259791 14.0298 0.650315 14.4203C1.04084 14.8108 1.674 14.8108 2.06453 14.4203L0.650315 13.0061ZM12.5003 2.57031L13.2074 1.86321C12.8169 1.47268 12.1837 1.47268 11.7932 1.86321L12.5003 2.57031ZM22.936 14.4203C23.3266 14.8108 23.9597 14.8108 24.3502 14.4203C24.7408 14.0298 24.7408 13.3966 24.3502 13.0061L22.936 14.4203ZM2.06453 14.4203L13.2074 3.27742L11.7932 1.86321L0.650315 13.0061L2.06453 14.4203ZM11.7932 3.27742L22.936 14.4203L24.3502 13.0061L13.2074 1.86321L11.7932 3.27742Z" fill="black" mask="url(#path-4-inside-2_1993_2301)"/>
</svg>
