<svg width="30" height="30" viewBox="0 0 30 30" fill="none" xmlns="http://www.w3.org/2000/svg">
<path d="M26.2626 20.7749C26.4081 20.6297 26.5236 20.4573 26.6024 20.2675C26.6811 20.0777 26.7217 19.8742 26.7217 19.6686C26.7217 19.4631 26.6811 19.2596 26.6024 19.0698C26.5236 18.8799 26.4081 18.7075 26.2626 18.5624L15.8751 8.17488C15.7595 8.059 15.6221 7.96707 15.4709 7.90434C15.3197 7.84161 15.1576 7.80933 14.9939 7.80933C14.8302 7.80933 14.6681 7.84161 14.5169 7.90434C14.3656 7.96707 14.2283 8.059 14.1126 8.17488L3.72514 18.5624C3.11263 19.1749 3.11263 20.1624 3.72514 20.7749C4.33764 21.3874 5.32514 21.3874 5.93764 20.7749L15.0001 11.7249L24.0626 20.7874C24.6626 21.3874 25.6626 21.3874 26.2626 20.7749Z" fill="#415F9D"/>
</svg>
