<svg width="24" height="24" viewBox="0 0 24 24" fill="none" xmlns="http://www.w3.org/2000/svg">
<path d="M21.1 7.1C21.1 8.4083 20.694 9.57426 20.0606 10.4025C19.4276 11.2303 18.5885 11.7 17.7 11.7C16.8116 11.7 15.9725 11.2303 15.3395 10.4025C14.7061 9.57426 14.3 8.4083 14.3 7.1C14.3 5.7917 14.7061 4.62574 15.3395 3.79748C15.9725 2.96968 16.8116 2.5 17.7 2.5C18.5885 2.5 19.4276 2.96969 20.0606 3.79748C20.694 4.62574 21.1 5.7917 21.1 7.1Z" stroke="black" stroke-linecap="round" stroke-linejoin="round"/>
<line x1="7.09998" y1="2" x2="7.09997" y2="22.4" stroke="black"/>
<line x1="17.9" y1="11.6001" x2="17.9" y2="22.4001" stroke="black"/>
<mask id="path-4-inside-1_2768_2912" fill="white">
<path d="M10.8 2V6.5C10.8 7.09094 10.6991 7.6761 10.5031 8.22208C10.3071 8.76804 10.0199 9.26412 9.65772 9.68199C9.29557 10.0998 8.86563 10.4313 8.39247 10.6575C7.91929 10.8836 7.41215 11 6.9 11C5.86566 11 4.87367 10.5259 4.14228 9.68199C3.41089 8.83807 3 7.69347 3 6.5V2"/>
</mask>
<path d="M11.8 2C11.8 1.44772 11.3523 1 10.8 1C10.2477 1 9.8 1.44772 9.8 2H11.8ZM10.5031 8.22208L11.4443 8.55996L11.4443 8.55995L10.5031 8.22208ZM9.65772 9.68199L10.4134 10.3369L10.4134 10.3369L9.65772 9.68199ZM8.39247 10.6575L8.82369 11.5597L8.8237 11.5597L8.39247 10.6575ZM4 2C4 1.44772 3.55228 1 3 1C2.44772 1 2 1.44772 2 2H4ZM9.8 2V6.5H11.8V2H9.8ZM9.8 6.5C9.8 6.97797 9.71829 7.44868 9.56194 7.8842L11.4443 8.55995C11.68 7.90352 11.8 7.20391 11.8 6.5H9.8ZM9.56195 7.88419C9.4056 8.3197 9.17936 8.70705 8.90202 9.02707L10.4134 10.3369C10.8604 9.82119 11.2087 9.21637 11.4443 8.55996L9.56195 7.88419ZM8.90205 9.02704C8.62491 9.3468 8.30372 9.59153 7.96124 9.75522L8.8237 11.5597C9.42755 11.2711 9.96622 10.8529 10.4134 10.3369L8.90205 9.02704ZM7.96125 9.75521C7.61939 9.9186 7.25927 10 6.9 10V12C7.56502 12 8.21919 11.8486 8.82369 11.5597L7.96125 9.75521ZM6.9 10C6.18081 10 5.45653 9.67154 4.89797 9.02705L3.38659 10.3369C4.29081 11.3803 5.5505 12 6.9 12V10ZM4.89797 9.02705C4.3355 8.37806 4 7.47081 4 6.5H2C2 7.91614 2.48627 9.29809 3.38659 10.3369L4.89797 9.02705ZM4 6.5V2H2V6.5H4Z" fill="black" mask="url(#path-4-inside-1_2768_2912)"/>
</svg>
