<svg width="24" height="24" viewBox="0 0 24 24" fill="none" xmlns="http://www.w3.org/2000/svg">
<path d="M3.53846 4.30786C3.13043 4.30786 2.73912 4.46995 2.4506 4.75846C2.16209 5.04698 2 5.43829 2 5.84632V20.4617C2 20.8697 2.16209 21.2611 2.4506 21.5496C2.73912 21.838 3.13043 22.0002 3.53846 22.0002H20.4615C20.8695 22.0002 21.2609 21.838 21.5494 21.5496C21.8378 21.2611 22 20.8697 22 20.4617V5.84632C22 5.43829 21.8378 5.04698 21.5494 4.75846C21.2609 4.46995 20.8695 4.30786 20.4615 4.30786H17.3846" stroke="black" stroke-linecap="round" stroke-linejoin="round"/>
<path d="M2 9.69238H22" stroke="black" stroke-linecap="round" stroke-linejoin="round"/>
<path d="M6.61536 2V6.61538" stroke="black" stroke-linecap="round" stroke-linejoin="round"/>
<path d="M17.3846 2V6.61538" stroke="black" stroke-linecap="round" stroke-linejoin="round"/>
<path d="M6.61536 4.30786H14.3077" stroke="black" stroke-linecap="round" stroke-linejoin="round"/>
</svg>
