<svg width="24" height="24" viewBox="0 0 24 24" fill="none" xmlns="http://www.w3.org/2000/svg">
<path d="M11 10C13.2091 10 15 8.20914 15 6C15 3.79086 13.2091 2 11 2C8.79086 2 7 3.79086 7 6C7 8.20914 8.79086 10 11 10Z" stroke="black" stroke-linecap="round" stroke-linejoin="round"/>
<path d="M13.0769 22H2V21.1335C2.0147 19.9152 2.3858 18.7199 3.07865 17.6595C3.77151 16.599 4.76351 15.7079 5.96198 15.0694C7.16046 14.4308 8.52632 14.0657 9.93196 14.0081C11.3376 13.9504 12.7372 14.2022 14 14.7399" stroke="black" stroke-linecap="round" stroke-linejoin="round"/>
<path d="M15.9375 12.6875V22.8125" stroke="black" stroke-linecap="round" stroke-linejoin="round"/>
<path d="M10.875 17.75H21" stroke="black" stroke-linecap="round" stroke-linejoin="round"/>
</svg>
