<svg width="24" height="24" viewBox="0 0 24 24" fill="none" xmlns="http://www.w3.org/2000/svg">
<path d="M5.143 9.92773H18.8573C19.5279 9.92773 20.0716 10.4714 20.0716 11.142V21.4277C20.0716 22.0984 19.5279 22.642 18.8573 22.642H5.143C4.47237 22.642 3.92871 22.0984 3.92871 21.4277V11.142C3.92871 10.4714 4.47237 9.92773 5.143 9.92773Z" stroke="black" stroke-linecap="round" stroke-linejoin="round"/>
<path d="M16.2426 2.61381C15.1174 1.48859 13.5913 0.856445 12 0.856445C10.4087 0.856445 8.88257 1.48859 7.75737 2.61381C6.63214 3.73902 6 5.26514 6 6.85644V9.42787" stroke="black" stroke-linecap="round" stroke-linejoin="round"/>
<path d="M12.0002 17.142C12.4736 17.142 12.8574 16.7583 12.8574 16.2849C12.8574 15.8115 12.4736 15.4277 12.0002 15.4277C11.5268 15.4277 11.1431 15.8115 11.1431 16.2849C11.1431 16.7583 11.5268 17.142 12.0002 17.142Z" fill="black"/>
</svg>
