<?xml version="1.0" standalone="no"?>
<!DOCTYPE svg PUBLIC "-//W3C//DTD SVG 20010904//EN"
 "http://www.w3.org/TR/2001/REC-SVG-20010904/DTD/svg10.dtd">
<svg version="1.0" xmlns="http://www.w3.org/2000/svg"
 width="260.000000pt" height="260.000000pt" viewBox="0 0 260.000000 260.000000"
 preserveAspectRatio="xMidYMid meet">
<metadata>
Created by potrace 1.14, written by Peter Selinger 2001-2017
</metadata>
<g transform="translate(0.000000,260.000000) scale(0.100000,-0.100000)"
fill="#000000" stroke="none">
<path d="M1085 2539 c-53 -47 -62 -102 -40 -239 2 -14 7 -58 10 -99 4 -41 8
-88 10 -105 3 -17 7 -60 10 -95 20 -219 34 -300 56 -330 51 -70 157 -54 199
30 25 49 25 69 -15 419 -2 19 -6 60 -9 90 -3 30 -8 73 -10 95 -3 22 -8 69 -11
105 -9 80 -18 104 -51 135 -40 37 -102 35 -149 -6z"/>
<path d="M2100 2233 c-26 -18 -121 -108 -377 -357 -160 -156 -180 -187 -170
-251 15 -93 107 -139 179 -90 16 11 388 367 484 463 53 53 65 93 51 164 -15
74 -106 113 -167 71z"/>
<path d="M235 1682 c-84 -52 -98 -171 -29 -234 11 -9 62 -28 114 -42 52 -15
187 -52 300 -82 113 -31 221 -56 241 -56 49 0 84 25 110 79 26 53 22 106 -11
151 -24 32 -47 40 -395 132 -82 22 -164 44 -180 50 -66 21 -118 22 -150 2z"/>
<path d="M1354 1389 c-22 -6 -98 -78 -265 -250 -129 -133 -265 -275 -304 -314
-310 -320 -295 -301 -295 -367 0 -77 46 -131 115 -134 25 0 70 21 93 45 9 9
126 129 258 267 133 137 289 298 347 358 l104 109 64 -17 c35 -10 165 -46 289
-81 591 -167 543 -156 588 -129 44 26 65 63 70 121 4 44 0 59 -19 88 -28 40
-41 45 -349 130 -113 31 -297 83 -410 115 -239 68 -245 70 -286 59z"/>
<path d="M1435 911 c-17 -10 -39 -30 -48 -45 -37 -56 -33 -87 49 -336 42 -129
91 -280 108 -334 38 -123 73 -166 132 -166 77 0 137 63 136 142 -1 22 -37 150
-82 286 -44 136 -90 276 -102 312 -40 124 -71 160 -136 160 -15 0 -41 -8 -57
-19z"/>
</g>
</svg>
