<svg width="20" height="20" viewBox="0 0 20 20" fill="none" xmlns="http://www.w3.org/2000/svg">
<path fill-rule="evenodd" clip-rule="evenodd" d="M20 10.226C20 9.51696 19.9351 8.83518 19.8145 8.18066H10.2041V12.0486H15.6958C15.4592 13.2986 14.7403 14.3576 13.6596 15.0667V17.5756H16.9573C18.8868 15.8348 20 13.2713 20 10.226Z" fill="#4285F4"/>
<path fill-rule="evenodd" clip-rule="evenodd" d="M10.2037 20C12.9588 20 15.2686 19.1046 16.9569 17.5774L13.6592 15.0684C12.7454 15.6684 11.5766 16.0229 10.2037 16.0229C7.546 16.0229 5.29646 14.2639 4.49405 11.9004H1.08496V14.4912C2.764 17.7592 6.21483 20 10.2037 20Z" fill="#34A853"/>
<path fill-rule="evenodd" clip-rule="evenodd" d="M4.49443 11.9003C4.29035 11.3004 4.1744 10.6595 4.1744 10.0004C4.1744 9.34138 4.29035 8.70051 4.49443 8.10054V5.50977H1.08534C0.394249 6.8597 0 8.38689 0 10.0004C0 11.614 0.394249 13.1412 1.08534 14.4911L4.49443 11.9003Z" fill="#FBBC05"/>
<path fill-rule="evenodd" clip-rule="evenodd" d="M10.2037 3.97707C11.7018 3.97707 13.0469 4.48158 14.1044 5.47244L17.0312 2.60441C15.264 0.990857 12.9542 0 10.2037 0C6.21483 0 2.764 2.24079 1.08496 5.5088L4.49405 8.09958C5.29646 5.73606 7.546 3.97707 10.2037 3.97707Z" fill="#EA4335"/>
</svg>
